<svg xmlns="http://www.w3.org/2000/svg" width="32" height="32" fill="#ffffff" viewBox="0 0 256 256">
  <path d="M76.735 13.079C68.315 4.649 57.117 0.005 45.187 0 20.605 0 0.599 20.005.589 44.594c-.003 7.86 2.05 15.532 5.953 22.296L.215 90l23.642-6.202c6.514 3.553 13.848 5.426 21.312 5.428h.018c.001 0-.001 0 0 0 24.579 0 44.587-20.007 44.597-44.597C89.789 32.713 85.155 21.509 76.735 13.079zm-49.659 33.138c-.557-.744-4.55-6.042-4.55-11.527 0-5.485 2.879-8.181 3.9-9.296 1.021-1.115 2.229-1.394 2.972-1.394s1.487.007 2.136.039c.684.035 1.603-.26 2.507 1.913.929 2.231 3.157 7.717 3.436 8.274.279.558.464 1.208.093 1.952-.371.743-.557 1.208-1.114 1.859-.557.651-1.17 1.453-1.672 1.952-.558.556-1.139 1.159-.489 2.274.65 1.116 2.886 4.765 6.199 7.72 4.256 3.797 7.847 4.973 8.961 5.531 1.114.558 1.764.465 2.414-.279.65-.744 2.786-3.254 3.529-4.369.743-1.115 1.486-.929 2.507-.558 1.022.372 6.5 3.068 7.614 3.625 1.114.558 1.857.837 2.136 1.302.279.465.279 2.696-.65 5.299-.929 2.603-5.381 4.979-7.522 5.298-1.92.287-4.349.407-7.019-.442-1.618-.513-3.694-1.199-6.353-2.347-7.918-4.33-15.218-15.585-15.776-16.329zm22.686 15.128c-.557-.371-1.753-1.167-2.456-1.784-.556-.472-1.744-1.874-1.925-3.558-.167-1.564.29-3.026.465-3.494.093-.233.744-1.256 1.037-1.441.42-.271.796-.465 1.576-.465.325 0 .713.047 1.139.139.14.031.465.186.814.546.285.284.453.542.568.814.058.186.254.407.542.698.464.51 1.139 1.362 1.372 1.81.116.209.205.407.279.605.143.45.05.698-.349 1.394-.465.651-1.97 2.327-2.295 2.72-.14.14-.93.818-1.585 1.32zm21.318-3.464c-.535-.233-2.905-.838-4.215-1.023-.349-.058-.713-.14-1.093-.14-1.024 0-1.862.512-2.35.93-.512.512-1.073 1.489-1.256 2.255-.14.558-.14 1.162 0 2.117.279 2.257 2.674 8.3 3.093 9.08.209.465.512 1.139.697 1.488.14.209.186.254.279.348.419.325 1.116.884 1.492 1.116.232.14.512.256.744.256s.651-.047.976-.186c.837-.348 1.972-1.256 2.35-1.675.163-.186.742-.767 1.202-1.256.209-.233.53-.58.697-.767.232-.279.581-.93.814-1.533.279-.651.209-1.53-.07-2.638-.233-1.204-.837-3.205-1.256-3.901-.163-.35-.267-.58-.581-.93zm-19.528 2.53c-.034-.021-.19.098-.197.106-.069.069-.151.208-.225.349-.139.209-.325.419-.512.581-.139.14-.279.14-.512.07-.116-.034-.291-.145-.465-.395-.395-.581-1.093-2.5-1.372-3.093-.105-.209-.046-.558.14-.742.139-.139.639-.58 1.202-1.073.511-.465 1.534-1.393 2.12-1.93.558-.558 1.07-1.278 1.07-1.675s-2.22-3.666-3.023-4.433c-.116-.116-.419-.393-.744-.744-.674-.674-1.5-1.393-2.072-1.745-.14-.093-.279-.186-.406-.186-.17 0-.744.023-1.405.512-.325.256-.465.465-.511.651-.093.279-.116 1.511-.035 2.117.14.698.744 2.813 1.255 4.182.197.512 2.046 5.565 2.304 6.12.209.512.728 1.533 1.093 2.186.256.512.651 1.535.651 1.767 0 .279-.14.465-.302.465-.046 0-.232-.058-.418-.14zm19.906-2.907c-.069-.058-.139-.093-.291-.163-.407-.233-1.047-.791-1.537-1.302-.139-.14-.558-.674-.93-1.073-.558-.651-1.162-1.533-1.302-1.907-.046-.093-.232-.407-.209-.465.046-.139.348-.046.651.256.256.256.512.512.651.605.58.256 1.488.838 2.042 1.442.512.512 1.441 1.907 1.767 2.5.279.512.651 1.67.651 2.042 0 .163-.093.325-.279.465-.279.209-.93.674-1.534 1.116-.512.407-1.256.93-1.767 1.12-.14.047-.395.116-.557.139-.302.035-.35-.046-.558-.442-.232-.465-.348-1.047-.163-1.441.092-.302.325-.628.605-.93.058-.058.14-.139.233-.186.604-.534 2.697-2.36 3.093-2.813.14-.14.139-.256-.046-.512-.07-.116-.35-.674-.558-.976zm-.442-1.992c-.046-.046-.162.006-.256.046-.593.256-2.893 2.162-3.463 2.558-.139.093-.291.186-.465.279-.651.349-1.443.512-1.953.512-.093 0-.255-.047-.372-.093-.14-.058-.314-.14-.465-.256-.256-.163-.93-.744-1.352-1.256-.348-.418-.81-1.139-1.116-1.675-.14-.232-.407-.651-.558-.976-.116-.256-.406-1.139-.116-1.767.093-.233.314-.488.512-.651.139-.093.349-.209.512-.279.14-.058.255-.093.325-.093.791 0 1.907-.465 2.558-.93.163-.093.628-.488.976-.814.232-.233.534-.674.697-.976.139-.256.465-1.093.651-1.537.139-.302.407-.744.465-.744.047 0 .163.093.279.14.302.14.628.407.93.651.256.232.976.93 1.256 1.256.139.14.186.233.186.348s-.058.186-.14.256c-.535.534-1.953 2.174-2.72 2.975-.186.209-.453.441-.651.558zm-19.79-1.325c-.14-.186-.651-.744-1.116-1.256-.348-.407-1.023-1.534-1.488-2.42-.046-.093-.14-.256-.14-.325 0-.093.007-.256.047-.35.093-.279.256-.651.325-.883.058-.186.14-.488.14-.651 0-.116-.052-.209-.14-.279-.093-.093-.256-.14-.35-.14-.348 0-1.186.407-1.814.814-.046.035-.047.047-.047.093 0 .07.047.186.14.302.407.46 1.86 2.012 2.604 2.661.419.348 1.046.907 1.443 1.23.628.465 1.535 1.627 2.005 2.355.139.209.325.512.441.698.14.256.302.604.395.814.093.209.209.395.279.512.093.186.058.302-.139.465-.279.279-.814.651-1.395.976z"/>
</svg>
